<?xml version="1.0" encoding="utf-8"?>
<!-- Generator: Adobe Illustrator 23.0.4, SVG Export Plug-In . SVG Version: 6.00 Build 0)  -->
<svg version="1.1" id="Layer_1" xmlns="http://www.w3.org/2000/svg" xmlns:xlink="http://www.w3.org/1999/xlink" x="0px" y="0px"
	 viewBox="0 0 1500 1500" style="enable-background:new 0 0 1500 1500;" xml:space="preserve">
<style type="text/css">
	.st0{fill:#172937;}
	.st1{fill:#AFA071;}
	.st2{fill:#414042;}
	.st3{fill:#FBBF38;}
	.st4{fill:#FFFFFF;stroke:#000000;stroke-miterlimit:10;}
	.st5{fill:#FFFFFF;}
	.st6{fill:#565349;}
	.st7{font-family:'Arial-Black';}
	.st8{font-size:36px;}
	.st9{letter-spacing:5;}
</style>
<rect id="XMLID_28_" class="st0" width="1500" height="1500"/>
<g id="XMLID_298_">
	<g id="XMLID_2_">
		<g id="XMLID_47_">
			<polygon class="st1" points="366.5,832.8 287.3,832.8 300,788 287.3,743.2 366.5,743.2 			"/>
		</g>
		<g id="XMLID_49_">
			
				<rect id="XMLID_281_" x="345.4" y="791" transform="matrix(0.7412 -0.6713 0.6713 0.7412 -456.4357 446.1226)" class="st2" width="10" height="48"/>
		</g>
		<g id="XMLID_29_">
			<path id="XMLID_282_" class="st1" d="M750,1142.3c-53,0-104.3-10.4-152.7-30.8c-46.7-19.8-88.7-48-124.7-84.1
				c-36-36-64.3-78-84.1-124.7C368,854.3,357.7,803,357.7,750s10.4-104.3,30.8-152.7c19.8-46.7,48-88.7,84.1-124.7
				c36-36,78-64.3,124.7-84.1C645.7,368,697,357.7,750,357.7s104.3,10.4,152.7,30.8c46.7,19.8,88.7,48,124.7,84.1
				c36,36,64.3,78,84.1,124.7c20.5,48.4,30.8,99.7,30.8,152.7s-10.4,104.3-30.8,152.7c-19.8,46.7-48,88.7-84.1,124.7
				c-36,36-78,64.3-124.7,84.1C854.3,1131.9,803,1142.3,750,1142.3z M750,367.7c-210.8,0-382.3,171.5-382.3,382.3
				s171.5,382.3,382.3,382.3s382.3-171.5,382.3-382.3S960.8,367.7,750,367.7z"/>
		</g>
		<g id="XMLID_31_">
			<path id="XMLID_278_" class="st3" d="M750,1122.4c-50.3,0-99-9.8-145-29.3c-44.3-18.8-84.2-45.6-118.4-79.8s-61-74-79.8-118.4
				c-19.4-45.9-29.3-94.7-29.3-145s9.8-99,29.3-145c18.8-44.3,45.6-84.2,79.8-118.4s74-61,118.4-79.8c45.9-19.4,94.7-29.3,145-29.3
				s99,9.8,145,29.3c44.3,18.8,84.2,45.6,118.4,79.8c34.2,34.2,61,74,79.8,118.4c19.4,45.9,29.3,94.7,29.3,145s-9.8,99-29.3,145
				c-18.8,44.3-45.6,84.2-79.8,118.4s-74,61-118.4,79.8C849,1112.5,800.3,1122.4,750,1122.4z M750,384.6
				c-201.5,0-365.4,163.9-365.4,365.4s163.9,365.4,365.4,365.4s365.4-163.9,365.4-365.4S951.5,384.6,750,384.6z"/>
		</g>
		<g id="XMLID_40_">
			<path id="XMLID_45_" class="st3" d="M750,1041.2c-77.8,0-150.9-30.3-205.9-85.3S458.8,827.8,458.8,750s30.3-150.9,85.3-205.9
				s128.1-85.3,205.9-85.3s150.9,30.3,205.9,85.3s85.3,128.1,85.3,205.9s-30.3,150.9-85.3,205.9
				C900.9,1010.9,827.8,1041.2,750,1041.2z M750,465.8c-156.7,0-284.2,127.5-284.2,284.2s127.5,284.2,284.2,284.2
				s284.2-127.5,284.2-284.2S906.7,465.8,750,465.8z"/>
		</g>
		<g id="XMLID_50_">
			<path id="XMLID_243_" class="st1" d="M750,1023.7c-73.1,0-141.8-28.5-193.5-80.2S476.3,823.1,476.3,750s28.5-141.8,80.2-193.5
				s120.4-80.2,193.5-80.2s141.8,28.5,193.5,80.2s80.2,120.4,80.2,193.5s-28.5,141.8-80.2,193.5S823.1,1023.7,750,1023.7z
				 M750,486.3c-145.4,0-263.7,118.3-263.7,263.7s118.3,263.7,263.7,263.7s263.7-118.3,263.7-263.7S895.4,486.3,750,486.3z"/>
		</g>
		<g id="XMLID_58_">
			<rect x="334.3" y="707.6" class="st1" width="169.4" height="89.6"/>
		</g>
		<g id="XMLID_59_">
			<path id="XMLID_210_" class="st2" d="M503.7,802.2H334.3c-2.8,0-5-2.2-5-5v-89.6c0-2.8,2.2-5,5-5h169.4c2.8,0,5,2.2,5,5v89.6
				C508.7,800,506.4,802.2,503.7,802.2z M339.3,792.2h159.4v-79.6H339.3V792.2z"/>
		</g>
		<g id="XMLID_63_">
			<polygon class="st1" points="1133.5,832.8 1212.7,832.8 1200,788 1212.7,743.2 1133.5,743.2 			"/>
		</g>
		<g id="XMLID_91_">
			
				<rect id="XMLID_205_" x="1125.6" y="810" transform="matrix(0.6713 -0.7412 0.7412 0.6713 -226.2008 1119.9547)" class="st2" width="48" height="10"/>
		</g>
		<g id="XMLID_92_">
			<rect id="XMLID_113_" x="996.3" y="707.6" class="st1" width="169.4" height="89.6"/>
		</g>
		<g id="XMLID_94_">
			<path id="XMLID_206_" class="st2" d="M1165.7,802.2H996.3c-2.8,0-5-2.2-5-5v-89.6c0-2.8,2.2-5,5-5h169.4c2.8,0,5,2.2,5,5v89.6
				C1170.7,800,1168.5,802.2,1165.7,802.2z M1001.3,792.2h159.4v-79.6h-159.4L1001.3,792.2L1001.3,792.2z"/>
		</g>
		<g id="XMLID_97_">
			<polygon id="XMLID_98_" class="st3" points="443.5,612 447.6,624.5 460.8,624.5 450.1,632.2 454.2,644.7 443.5,637 432.9,644.7 
				437,632.2 426.3,624.5 439.5,624.5 			"/>
		</g>
		<g id="XMLID_99_">
			<polygon id="XMLID_100_" class="st3" points="1054.9,612 1058.9,624.5 1072.1,624.5 1061.4,632.2 1065.5,644.7 1054.9,637 
				1044.2,644.7 1048.3,632.2 1037.7,624.5 1050.8,624.5 			"/>
		</g>
	</g>
</g>
<g>
	<g>
		<path class="st4" d="M978.2,654.8c-33.9,4.8-38.8,8.7-51.9,48.5c-16,48.5-54.8,171.6-81.4,258.4h-16.5
			c-25.2-75.6-57.7-169.2-82.9-240.9c-28.1,83.4-56.7,166.3-81.9,240.9h-16c-24.2-83.4-51.9-174-78-258.9
			c-12.6-39.3-17.9-44.6-49.4-48v-13.6h119.7v13.6c-35.9,3.9-36.8,9.2-30.1,33.4c18.9,65.4,38.3,129.9,58.2,198.3
			c26.7-77.1,55.7-161.4,80.5-240.9H764c27.1,82.4,54.3,159,82.4,241.4c20.4-64.5,48-150.8,58.7-192.9c7.3-28.1,3.4-34.4-37.8-39.3
			v-13.6h111V654.8z"/>
	</g>
</g>
<g>
	<g>
		<path class="st5" d="M529.7,541.9c-15.7-6.3-31.9-12.1-48.5-17.2c1.7-2,3.4-3.9,5.1-5.8c8.2,2.9,16.2,6,24.2,9.2
			c5.9,2.3,11.6,4.9,15.9,7c0,0,0.1-0.1,0.1-0.1c-3.3-3.4-6.8-7.9-10.5-12.9c-4.8-6.5-9.5-13.1-14-19.8c1.8-1.8,3.6-3.5,5.4-5.2
			c7.8,3.6,15.5,7.3,23,11.2c5.3,2.7,10.5,5.6,14.7,8.4c0,0,0.1-0.1,0.1-0.1c-3.1-4.1-6-8.6-9.1-13.6c-4.2-6.8-8.2-13.8-12-20.8
			c1.8-1.5,3.7-3.1,5.6-4.5c7,14.3,14.7,28.3,23,41.8c-1.6,1.4-3.1,2.8-4.7,4.2c-7.7-4.1-15.4-8-23.3-11.8
			c-5.8-2.8-10.2-4.9-14.5-7.5c0,0-0.1,0.1-0.1,0.1c3,3.6,5.7,7.4,9.2,12.6c4.7,6.9,9.7,13.6,14.7,20.2
			C532.6,538.8,531.1,540.3,529.7,541.9z"/>
		<path class="st5" d="M584,470c-5.5,3.2-10.8,6.7-16.1,10.3c3.6,4.3,7.2,8.6,10.7,12.9c5.6-3.8,11.2-7.3,17-10.7
			c1,1.4,1.9,2.7,2.9,4.1c-7.3,4.3-14.5,8.9-21.5,13.9c-10.2-11.7-20.4-23.5-30.6-35.2c7.9-5.6,16-10.8,24.3-15.7
			c1,1.4,1.9,2.7,2.9,4.1c-6.2,3.6-12.3,7.5-18.3,11.6c3.1,3.8,6.3,7.5,9.4,11.3c5.4-3.7,10.9-7.1,16.4-10.4
			C582.1,467.3,583,468.7,584,470z"/>
		<path class="st5" d="M610.9,471.6c3.2,0.2,7.4-0.3,11.1-2c5.4-2.5,7.2-6.7,5.1-10.8c-1.9-3.8-5.4-5-12.5-4.4
			c-8.4,1-14.9,0-18.3-5.5c-3.8-6.1-0.5-13.8,8.9-18c4.9-2.2,9-2.7,11.7-2.6c0.1,1.7,0.3,3.3,0.4,5c-1.9-0.1-5.7,0-10,2
			c-6.5,2.9-7,7.4-5.4,10.1c2.2,3.7,6,4.1,13.3,3.5c9-0.7,14.5,1.2,17.4,7.2c3,6.4,0.9,13.6-8.6,18c-3.9,1.8-8.8,2.8-11.8,2.5
			C611.7,474.8,611.3,473.2,610.9,471.6z"/>
		<path class="st5" d="M650.7,420c-5,1.5-9.9,3.1-14.9,4.8c-0.6-1.5-1.3-3.1-1.9-4.6c12.2-4.2,24.6-7.8,37.1-10.6
			c0.4,1.6,0.9,3.2,1.3,4.8c-5.1,1.2-10.1,2.4-15.2,3.8c4.2,12.7,8.4,25.5,12.7,38.2c-1.9,0.5-3.7,1-5.6,1.6
			C659.7,445.4,655.2,432.7,650.7,420z"/>
		<path class="st5" d="M734.6,426.2c-0.7-6.2-1.6-13.7-1.9-19.3c-0.1,0-0.2,0-0.2,0c-1.4,5.3-3.1,11-5,17.4
			c-2.2,7.4-4.2,14.9-6,22.4c-1.4,0.1-2.9,0.3-4.3,0.4c-3.3-6.8-6.8-13.6-10.4-20.3c-3.2-6-6.2-11.4-8.6-16.4c0,0-0.1,0-0.1,0
			c0.8,5.5,1.8,13,2.6,19.7c0.7,6.4,1.5,12.8,2.3,19.2c-1.8,0.3-3.6,0.6-5.4,0.9c-2.1-14.9-4-29.8-5.7-44.7c2.8-0.5,5.6-0.9,8.4-1.3
			c4.1,6.7,8,13.5,11.7,20.4c2.7,5.3,4.9,10,6.6,14.5c0.1,0,0.1,0,0.2,0c0.6-4.6,1.7-9.7,3.2-15.5c2.1-7.4,4.4-14.9,7-22.3
			c2.8-0.2,5.7-0.3,8.5-0.4c1.7,14.9,3.2,29.8,4.6,44.8c-1.8,0-3.7,0.1-5.5,0.2C736.2,439.3,735.4,432.8,734.6,426.2z"/>
		<path class="st5" d="M771.4,401.3c-1.1,14.9-2.1,29.9-3.2,44.8c-1.9-0.1-3.8-0.2-5.7-0.3c0.7-14.9,1.4-29.9,2.2-44.8
			C767,401,769.2,401.2,771.4,401.3z"/>
		<path class="st5" d="M789.5,448.1c2.3-14.8,4.6-29.6,6.9-44.4c2.4,0.3,4.8,0.7,7.2,1c4.1,8.3,7.8,16.7,11.1,25.1
			c2.3,5.8,3.7,11,4.6,15.9c0,0,0.1,0,0.1,0c1.1-5.9,2.3-11.3,4.2-18.1c1.6-6.1,3.3-12.2,4.9-18.2c2.1,0.5,4.1,0.9,6.2,1.4
			c-4.2,14.5-8.4,28.9-12.7,43.4c-1.9-0.5-3.7-0.9-5.6-1.3c-2.6-8.4-5.6-16.8-9-25.1c-2.3-5.5-4.6-11.1-6.3-16.2c-0.1,0-0.2,0-0.2,0
			c-0.6,5.6-1.4,11-2.7,18.4c-1.1,6.3-2.2,12.6-3.4,18.9C793,448.6,791.3,448.3,789.5,448.1z"/>
		<path class="st5" d="M844.5,453.1c1.9,2.3,5.1,4.8,8.8,6.1c5.6,2,10.2,0.4,12.2-3.7c1.8-3.8,0.5-7-4.6-11.4
			c-6.3-5.1-9.7-10.1-7.5-16.1c2.4-6.6,10.8-9.6,20.4-6c5,1.9,8.2,4.3,9.8,6.2c-1.3,1.2-2.6,2.4-3.8,3.6c-1.2-1.4-3.8-3.9-8.2-5.5
			c-6.6-2.4-10.6,0.2-11.7,3.1c-1.6,3.9,0.5,6.8,5.9,11.4c6.6,5.6,8.7,10.6,5.6,16.6c-3.2,6.3-10.6,9.7-20.4,6.2
			c-4-1.4-8-4.1-9.7-6.3C842.4,455.8,843.4,454.4,844.5,453.1z"/>
		<path class="st5" d="M913.3,445.9c-4.7-2.5-9.4-4.8-14.1-7.1c0.8-1.5,1.7-2.9,2.5-4.4c11.8,5.6,23.3,11.8,34.5,18.7
			c-1,1.4-2,2.7-3.1,4.1c-4.6-2.8-9.2-5.5-13.8-8.1c-7.7,11.3-15.3,22.7-23,34c-1.7-1-3.4-1.9-5.2-2.8
			C898.6,468.9,906,457.4,913.3,445.9z"/>
		<path class="st5" d="M957.2,498.5c-5-4.1-10.1-8.1-15.3-11.9c-3.8,4.2-7.5,8.4-11.3,12.5c5.5,4,10.8,8.2,16,12.5
			c-1.2,1.2-2.5,2.4-3.7,3.5c-6.7-5.6-13.5-10.8-20.6-15.7c10.1-11.8,20.3-23.6,30.4-35.4c7.9,5.5,15.7,11.5,23.3,17.7
			c-1.2,1.2-2.4,2.4-3.7,3.5c-5.7-4.7-11.4-9.2-17.3-13.5c-3.3,3.7-6.6,7.3-9.9,11c5.3,3.9,10.5,7.9,15.6,12.1
			C959.6,496.2,958.4,497.3,957.2,498.5z"/>
		<path class="st5" d="M994,498.7c3.1,2.1,7.1,5.5,10.5,9.1c5.4,5.5,7.7,10,7.8,14.1c0.1,3.3-1.6,6.3-4.7,8.3
			c-5.3,3.5-11.7,2.5-16.8-0.6c-0.1,0-0.1,0.1-0.2,0.1c1.7,3.7,0.4,7.4-3,11.1c-4.5,5-7.6,8.4-8.5,10.2c-1.4-1.6-2.8-3.2-4.2-4.8
			c0.6-1.3,3.3-4.5,7.2-9c4.4-4.9,4.6-8.4,0.6-12.8c-1.4-1.5-2.9-3-4.4-4.4c-5.4,4.3-10.8,8.5-16.2,12.8c-1.4-1.4-2.9-2.8-4.4-4.2
			C969.9,518.6,981.9,508.6,994,498.7z M982.1,517.1c1.6,1.6,3.2,3.2,4.8,4.9c4.9,5.1,11,6.5,15.5,3.4c5.1-3.5,3.9-8.9-1.3-14.4
			c-2.4-2.5-4.3-4-5.4-4.6C991.2,509.9,986.6,513.5,982.1,517.1z"/>
	</g>
</g>
<g>
	<g>
		<path class="st5" d="M433.4,874.9c-0.2,3.2,0.4,7.6,2.3,11.8c2.7,6.2,6.9,8.7,10.4,7.3c3.3-1.4,4-4.5,3.1-11.3
			c-1.2-8.2,0.1-13.8,5.1-15.5c5.6-1.8,12,2.4,15.6,10.5c1.9,4.3,2.6,7.7,2.6,9.9c-1.5,0-2.9,0.1-4.4,0.1c0-1.6-0.3-4.8-2.1-8.7
			c-2.6-5.8-6.4-7-8.9-6.2c-3.3,1.2-3.9,4.5-3,11.3c1.1,8.4,0.2,13.3-4.9,15.5c-5.3,2.3-12.6-0.8-17.6-12c-2-4.6-3.1-10.1-2.8-13.1
			C430.4,874.7,431.9,874.8,433.4,874.9z"/>
		<path class="st5" d="M485.8,909.7c-4.6,2.5-9.3,4.9-13.9,7.4c3.8,6.5,7.8,12.7,12,18.8c4.4-2.8,8.9-5.6,13.3-8.3
			c1.1,1.6,2.1,3.1,3.2,4.6c-10.5,6.8-20.9,13.7-31.4,20.5c-1.2-1.7-2.4-3.5-3.6-5.2c5-3.1,9.9-6.2,14.9-9.3
			c-4.2-6.2-8.3-12.5-12.1-19.1c-5.2,2.8-10.4,5.5-15.6,8.3c-1.1-1.8-2.2-3.7-3.2-5.6c11.2-5.7,22.4-11.4,33.6-17.1
			C483.8,906.4,484.8,908,485.8,909.7z"/>
		<path class="st5" d="M522.9,986.4c-9.2,8.9-21.2,6.9-29.4-2.2c-8.5-9.4-7.7-21,1.4-27.5c9.7-6.9,21.1-4.9,28.5,3.3
			C531.2,968.3,530.9,978.7,522.9,986.4z M499,961.5c-6.4,4.8-8.6,13.4-2.2,20.5c6.5,7.1,15.5,6.1,21.7,0.4c5.4-5.1,8-13.3,1.9-20
			C514.3,955.6,505.6,956.5,499,961.5z"/>
		<path class="st5" d="M547.6,985.1c2.4,1.4,5.5,3.7,8.3,6c4.4,3.5,6.7,6.4,7.4,9.6c0.6,2.5,0,5.2-1.8,7.4c-3,3.8-7.9,4.3-12.4,2.5
			c0,0-0.1,0.1-0.1,0.1c2,2.8,2,6,0.4,9.7c-2.1,4.9-3.4,8.3-3.5,10c-1.6-1.2-3.3-2.4-4.9-3.6c0.1-1.3,1.3-4.3,3.2-8.7
			c2.2-4.7,1.6-7.6-2.3-11c-1.4-1.1-2.7-2.3-4.1-3.4c-3.6,4-7.2,7.9-10.8,11.9c-1.5-1.3-3-2.6-4.5-3.9
			C530.9,1002.9,539.3,994,547.6,985.1z M540.3,1001.1c1.5,1.2,2.9,2.4,4.4,3.6c4.7,3.8,9.5,3.9,12.1,0.6c3-3.7,1.3-7.6-3.1-11.2
			c-2-1.6-3.6-2.6-4.4-3C546.4,994.4,543.3,997.7,540.3,1001.1z"/>
		<path class="st5" d="M585.3,1017.2c-3.5-2.2-7-4.4-10.5-6.7c0.8-1.1,1.6-2.2,2.4-3.3c8.3,5.6,16.8,10.7,25.5,15.4
			c-0.7,1.2-1.4,2.3-2,3.5c-3.6-2-7.3-4-10.8-6.1c-5.9,9.2-11.9,18.4-17.8,27.6c-1.7-1-3.4-2-5.1-3.1
			C573.1,1035.4,579.2,1026.3,585.3,1017.2z"/>
		<path class="st5" d="M625.6,1054.9c-5.1-2.1-10.2-4.3-15.2-6.6c-2,3.9-4,7.9-6,11.8c5.8,2.7,11.7,5.2,17.6,7.6
			c-0.5,1.2-1.1,2.4-1.6,3.6c-7.8-3.1-15.5-6.5-23.1-10.2c5.7-10.8,11.5-21.7,17.2-32.5c6.5,3.1,13,6,19.7,8.7
			c-0.5,1.2-1.1,2.4-1.6,3.6c-5.1-2.1-10.2-4.2-15.2-6.6c-1.7,3.5-3.5,6.9-5.2,10.4c4.9,2.3,9.9,4.5,15,6.5
			C626.7,1052.5,626.2,1053.7,625.6,1054.9z"/>
		<path class="st5" d="M649.5,1043.6c2.6,0.4,6.2,1.3,9.6,2.3c5.2,1.6,8.3,3.4,10.2,6c1.5,2.1,1.9,4.8,1.2,7.5
			c-1.3,4.6-5.5,6.9-10.2,6.9c0,0.1,0,0.1,0,0.2c2.8,1.8,4,4.8,3.9,8.7c0,5.3,0,8.9,0.6,10.5c-1.9-0.5-3.8-1-5.8-1.5
			c-0.4-1.2-0.5-4.5-0.3-9.1c0.2-5.2-1.4-7.6-6.1-9.2c-1.6-0.5-3.3-1-4.9-1.5c-1.8,5-3.5,10-5.3,14.9c-1.8-0.6-3.7-1.2-5.5-1.8
			C641.1,1066.1,645.3,1054.9,649.5,1043.6z M648.9,1060.9c1.8,0.6,3.5,1.1,5.3,1.7c5.6,1.7,9.9,0,11.1-4c1.3-4.5-1.7-7.5-6.9-9.1
			c-2.4-0.7-4.2-1.1-5-1.1C651.8,1052.5,650.3,1056.7,648.9,1060.9z"/>
		<path class="st5" d="M735.3,1094.9c-2.1,0.8-6.4,1.4-11.8,1c-12.6-1-21-8.9-19-20.6c1.9-11.3,11.4-17.6,23.4-16.7
			c4.9,0.4,7.9,1.5,9.3,2.2c-0.5,1.3-1,2.5-1.5,3.8c-1.9-1-4.7-1.8-8-2c-9.3-0.7-16.2,3.8-17.6,13.3c-1.3,8.8,4.1,15.4,14.8,16.2
			c3.4,0.3,7-0.1,9.3-0.9C734.7,1092.4,735,1093.6,735.3,1094.9z"/>
		<path class="st5" d="M757.4,1060.1c0.1,5.1,0.2,10.2,0.2,15.2c6.7-0.1,13.4-0.4,20.1-0.9c-0.4-5.1-0.8-10.1-1.2-15.2
			c1.7-0.1,3.4-0.3,5.1-0.4c1.2,12.1,2.4,24.2,3.6,36.2c-1.9,0.2-3.9,0.3-5.8,0.5c-0.5-5.7-0.9-11.3-1.4-17
			c-6.8,0.5-13.6,0.8-20.4,0.9c0.1,5.7,0.2,11.4,0.3,17.1c-1.9,0-3.8,0-5.7,0c0-12.1,0-24.3,0-36.4
			C754,1060.1,755.7,1060.1,757.4,1060.1z"/>
		<path class="st5" d="M810,1080.3c-0.8,4-1.6,8-2.5,12c-2,0.3-3.9,0.6-5.9,0.9c3.2-12.7,5.8-25.4,7.9-38.1c2-0.4,4-0.7,6.1-1.1
			c7,11,14.6,21.8,22.7,32.3c-2,0.5-4,1-6,1.4c-2.5-3.4-4.9-6.8-7.3-10.2C820,1078.5,815,1079.5,810,1080.3z M823,1074.1
			c-2.1-3.1-4.2-6.3-6.3-9.4c-1.4-2.2-2.4-4.2-3.4-6.1c0,0-0.1,0-0.1,0c-0.1,2.2-0.3,4.5-0.7,6.8c-0.6,3.7-1.3,7.4-2,11.1
			C814.7,1075.8,818.9,1075,823,1074.1z"/>
		<path class="st5" d="M851.4,1048.8c-3.9,1.2-7.8,2.4-11.7,3.5c-0.4-1.3-0.8-2.6-1.2-3.8c9.4-2.6,18.7-5.7,27.9-9.2
			c0.5,1.2,1,2.5,1.6,3.7c-3.8,1.5-7.7,2.9-11.6,4.2c3.8,10.2,7.6,20.4,11.3,30.5c-1.8,0.6-3.7,1.2-5.5,1.8
			C858.6,1069.2,855,1059,851.4,1048.8z"/>
		<path class="st5" d="M907,1042.4c-4.9,2.5-9.9,4.9-14.9,7.2c2,4,3.9,7.9,5.9,11.9c5.8-2.6,11.6-5.4,17.3-8.4
			c0.7,1.2,1.3,2.3,2,3.5c-7.5,3.9-15.1,7.5-22.8,10.9c-5.2-11.1-10.5-22.1-15.7-33.2c6.6-2.8,13.1-5.9,19.5-9.2
			c0.7,1.2,1.3,2.3,2,3.5c-4.9,2.6-9.9,5-15,7.3c1.7,3.5,3.4,6.9,5.1,10.4c5-2.2,9.9-4.6,14.7-7.1
			C905.7,1040.1,906.4,1041.3,907,1042.4z"/>
		<path class="st5" d="M958.4,1029.7c-1.2,2-4.2,5.2-8.8,8.3c-10.8,7.2-22.6,6.4-29-3.9c-6.1-9.9-2.8-20.6,7.5-27.5
			c4.2-2.8,7.3-3.9,8.9-4.2c0.5,1.3,0.9,2.5,1.4,3.8c-2.2,0.5-4.9,1.6-7.7,3.5c-7.9,5.3-10.3,13.1-5.1,21.3
			c4.9,7.6,13.5,9.3,22.7,3.1c2.9-2,5.5-4.5,6.8-6.6C956.2,1028.2,957.3,1028.9,958.4,1029.7z"/>
		<path class="st5" d="M952.8,988.7c3.5,3.8,6.9,7.7,10.4,11.5c5.3-4.5,10.5-9.1,15.6-14c-3.7-3.6-7.5-7.2-11.2-10.8
			c1.3-1.2,2.6-2.5,3.9-3.8c9.1,8.5,18.2,16.9,27.2,25.4c-1.4,1.4-2.9,2.8-4.4,4.2c-4.2-4-8.4-8.1-12.5-12.1
			c-5.1,4.9-10.4,9.6-15.8,14.2c3.9,4.3,7.8,8.6,11.7,12.9c-1.5,1.3-3.1,2.5-4.6,3.8c-8.1-9.3-16.3-18.6-24.4-27.9
			C950.1,990.9,951.5,989.8,952.8,988.7z"/>
		<path class="st5" d="M988,954c9.8,7.7,19.5,15.5,29.3,23.2c-1.3,1.5-2.7,3.1-4,4.6c-9.6-7.9-19.2-15.8-28.8-23.7
			C985.6,956.7,986.8,955.3,988,954z"/>
		<path class="st5" d="M1025.4,957.8c2.7-1.4,6.1-4,8.6-7.5c3.7-5.2,3.5-9.7,0.2-11.6c-3-1.8-6.1-0.7-11.3,3.3
			c-6.2,5-11.6,6.7-15.9,3.7c-4.8-3.4-4.9-10.2-0.2-17.1c2.5-3.6,5-5.9,6.9-7c0.9,1.1,1.7,2.2,2.5,3.3c-1.4,0.9-3.9,2.8-6.2,6
			c-3.4,4.9-2.2,8.4-0.1,9.8c2.9,1.9,6,0.8,11.2-3.3c6.5-5.1,11.2-7,16-4.2c5,2.9,6.4,10.2-0.2,19.7c-2.7,3.8-6.6,7.3-9.3,8.6
			C1026.9,960.2,1026.2,959,1025.4,957.8z"/>
		<path class="st5" d="M1059.6,877c-5.1-1.4-11.3-3.2-15.7-4.8c0,0.1-0.1,0.1-0.1,0.2c3.6,3,7.2,6.4,11.1,10.6
			c4.5,4.8,9,9.8,13.4,14.8c-0.7,1.5-1.4,3-2.2,4.5c-6.7,0.1-13.4,0.1-20-0.1c-5.9-0.2-11.2-0.6-15.8-1.4c0,0,0,0.1-0.1,0.1
			c4.2,2.2,9.7,5.2,14.6,8c4.6,2.7,9.3,5.5,13.9,8.2c-1,1.8-2,3.6-3,5.4c-10.6-6.7-21.3-13.3-32-19.8c1.2-2.1,2.4-4.3,3.5-6.5
			c6.7,0.3,13.5,0.5,20.2,0.5c5.2,0.1,9.7,0.2,13.9,0.6c0-0.1,0.1-0.1,0.1-0.2c-3-2.6-6-5.8-9.6-9.5c-4.5-4.9-9-9.7-13.6-14.3
			c1-2.3,2-4.7,3-7.1c12.3,3.2,24.7,6.2,37.1,9.2c-0.8,2.1-1.6,4.1-2.5,6.1C1070.4,879.9,1065,878.5,1059.6,877z"/>
	</g>
</g>
<text transform="matrix(1 0 0 1 1023.6996 766.0002)" class="st6 st7 st8 st9">1647</text>
<text transform="matrix(1 0 0 1 357.7004 766.0004)" class="st6 st7 st8 st9">1647</text>
</svg>
